<?xml version="1.0" encoding="UTF-8"?>
<!DOCTYPE svg PUBLIC "-//W3C//DTD SVG 1.1//EN" "http://www.w3.org/Graphics/SVG/1.1/DTD/svg11.dtd">
<!-- Creator: CorelDRAW 2018 (64-Bit Evaluation Version) -->
<svg xmlns="http://www.w3.org/2000/svg" xml:space="preserve" width="42px" height="42px" version="1.1" style="shape-rendering:geometricPrecision; text-rendering:geometricPrecision; image-rendering:optimizeQuality; fill-rule:evenodd; clip-rule:evenodd"
viewBox="0 0 53.11 53.11"
 xmlns:xlink="http://www.w3.org/1999/xlink">
 <defs>
  <style type="text/css">
   <![CDATA[
    .fil0 {fill:#FEFEFE;fill-rule:nonzero}
   ]]>
  </style>
 </defs>
 <g id="Layer_x0020_1">
  <metadata id="CorelCorpID_0Corel-Layer"/>
  <path class="fil0" d="M29.33 48.86l-1.26 -39.13c0,-1.08 -0.67,-1.96 -1.51,-1.96 -0.84,0 -1.52,0.88 -1.52,1.96l-0.35 11.22 -7.57 -6.92c-0.53,-0.52 -1.29,-0.62 -1.69,-0.24 -0.4,0.39 -0.29,1.13 0.24,1.65l8.9 9.2 -0.32 10.17 -11.78 -10.76c-0.64,-0.62 -1.55,-0.75 -2.03,-0.28 -0.48,0.46 -0.35,1.35 0.29,1.97l6.61 6.78 -7.81 0.29c-0.45,0 -0.81,0.33 -0.81,0.74 0,0.41 0.36,0.73 0.81,0.73l9.88 0.37 4.69 4.91 -0.3 9.3c-11.11,-1.36 -19.73,-10.82 -19.73,-22.31 0,-12.41 10.07,-22.48 22.48,-22.48 12.42,0 22.48,10.07 22.48,22.48 0,11.48 -8.59,20.94 -19.7,22.31zm-2.78 -48.86c-14.66,0 -26.55,11.89 -26.55,26.55 0,14.67 11.89,26.56 26.55,26.56 14.67,0 26.56,-11.89 26.56,-26.56 0,-14.66 -11.89,-26.55 -26.56,-26.55zm9.83 11.44c-1.27,0.01 -2.54,0.49 -3.51,1.47 -0.97,0.97 -1.46,2.24 -1.46,3.51 -0.01,0.32 0.26,0.58 0.57,0.58 1.28,-0.01 2.55,-0.5 3.52,-1.47 0.97,-0.97 1.45,-2.24 1.46,-3.51 0,-0.32 -0.26,-0.58 -0.58,-0.58zm0 6.46c-1.27,0 -2.54,0.49 -3.51,1.46 -0.97,0.97 -1.46,2.24 -1.46,3.51 -0.01,0.32 0.26,0.58 0.57,0.58 1.28,0 2.55,-0.49 3.52,-1.46 0.97,-0.97 1.45,-2.24 1.46,-3.51 0,-0.32 -0.26,-0.58 -0.58,-0.58zm7.52 12.91c-1.28,0.01 -2.55,0.49 -3.52,1.46 -0.97,0.97 -1.46,2.24 -1.46,3.52 0,0.31 0.26,0.58 0.58,0.57 1.27,0 2.54,-0.49 3.51,-1.46 0.97,-0.97 1.46,-2.24 1.46,-3.51 0.01,-0.32 -0.26,-0.58 -0.57,-0.58zm-4.4 -7.36c1.27,0 2.54,-0.49 3.51,-1.46 0.97,-0.97 1.46,-2.24 1.46,-3.51 0.01,-0.32 -0.26,-0.58 -0.57,-0.58 -1.28,0 -2.55,0.49 -3.52,1.46 -0.97,0.97 -1.46,2.24 -1.46,3.51 0,0.32 0.26,0.58 0.58,0.58zm4.4 0.9c-1.28,0.01 -2.55,0.5 -3.52,1.47 -0.97,0.97 -1.46,2.24 -1.46,3.51 0,0.32 0.26,0.58 0.58,0.58 1.27,-0.01 2.54,-0.49 3.51,-1.46 0.97,-0.98 1.46,-2.25 1.46,-3.52 0.01,-0.32 -0.26,-0.58 -0.57,-0.58zm-7.52 0c-1.27,0.01 -2.54,0.5 -3.51,1.47 -0.97,0.97 -1.46,2.24 -1.46,3.51 -0.01,0.32 0.26,0.58 0.57,0.58 1.28,-0.01 2.55,-0.49 3.52,-1.46 0.97,-0.98 1.45,-2.25 1.46,-3.52 0,-0.32 -0.26,-0.58 -0.58,-0.58zm0 12.92c-1.27,0 -2.54,0.49 -3.51,1.46 -0.97,0.97 -1.46,2.24 -1.46,3.51 -0.01,0.32 0.26,0.58 0.57,0.58 1.28,-0.01 2.55,-0.49 3.52,-1.46 0.97,-0.97 1.45,-2.24 1.46,-3.52 0,-0.31 -0.26,-0.58 -0.58,-0.57zm0 -6.46c-1.27,0.01 -2.54,0.49 -3.51,1.46 -0.97,0.97 -1.46,2.24 -1.46,3.52 -0.01,0.31 0.26,0.58 0.57,0.57 1.28,0 2.55,-0.49 3.52,-1.46 0.97,-0.97 1.45,-2.24 1.46,-3.51 0,-0.32 -0.26,-0.58 -0.58,-0.58z"/>
 </g>
</svg>
